<svg width="48" height="48" viewBox="0 0 48 48" fill="none" xmlns="http://www.w3.org/2000/svg">
<path fill-rule="evenodd" clip-rule="evenodd" d="M16.3463 5.52241C18.7728 4.51732 21.3736 4 24 4C26.6264 4 29.2272 4.51732 31.6537 5.52241C34.0802 6.5275 36.285 8.00069 38.1421 9.85786C39.9993 11.715 41.4725 13.9198 42.4776 16.3463C43.4827 18.7728 44 21.3736 44 24C44 29.3043 41.8929 34.3914 38.1421 38.1421C34.3914 41.8929 29.3043 44 24 44C21.3736 44 18.7728 43.4827 16.3463 42.4776C13.9198 41.4725 11.715 39.9993 9.85786 38.1421C6.10714 34.3914 4 29.3043 4 24C4 18.6957 6.10714 13.6086 9.85786 9.85786C11.715 8.00069 13.9198 6.5275 16.3463 5.52241ZM33.9426 17.4812C35.0115 17.3388 36.043 17.0412 37 16.5882C36.2792 17.7141 35.3843 18.6976 34.3403 19.4741C34.3528 19.72 34.3528 19.9529 34.3528 20.1988C34.3528 27.5365 28.9713 36 19.1778 36C16.1702 36 13.3614 35.0812 11 33.5024C11.4226 33.5541 11.8451 33.58 12.2677 33.58C14.6713 33.5921 17.0074 32.7523 18.892 31.1988C17.7802 31.1777 16.7027 30.7944 15.811 30.1026C14.9193 29.4109 14.2582 28.4456 13.9207 27.3424C14.7162 27.5056 15.5372 27.4746 16.3193 27.2518C13.8834 26.7471 12.044 24.4953 12.044 21.8035V21.7647C12.7648 22.1529 13.5851 22.4118 14.4675 22.4118C13.0258 21.4412 12.0937 19.7329 12.0937 17.8047C12.0937 16.7953 12.3547 15.8376 12.8145 15.0224C15.4369 18.3741 19.3767 20.5871 23.8011 20.82C23.7141 20.4188 23.6644 19.9918 23.6644 19.5518C23.6644 16.4847 26.0507 14 28.9713 14C30.5373 14 31.9168 14.6471 32.8987 15.76C34.1042 15.5012 35.2476 15.0482 36.2792 14.4012C35.8815 15.7082 35.0363 16.7953 33.9426 17.4812Z" fill="white"/>
</svg>
