<svg width="48" height="48" viewBox="0 0 48 48" fill="none" xmlns="http://www.w3.org/2000/svg">
<path d="M16.42 24L13.76 25.78V22.22L16.42 24ZM22.94 19.64V14.68L14.62 20.24L18.32 22.72L22.94 19.64ZM33.4 20.24L25.06 14.68V19.64L29.68 22.72L33.4 20.24ZM14.62 27.76L22.94 33.32V28.36L18.32 25.28L14.62 27.76ZM25.06 28.36V33.32L33.4 27.76L29.68 25.28L25.06 28.36ZM24 21.48L20.24 24L24 26.52L27.76 24L24 21.48ZM44 24C44 35 35 44 24 44C13 44 4 35 4 24C4 13 13 4 24 4C35 4 44 13 44 24ZM36.36 20.24V20.1L36.34 20L36.32 19.9C36.3 19.88 36.3 19.86 36.28 19.82L36.26 19.78L36.22 19.7L36.2 19.66L36.16 19.6L36.12 19.54L36.06 19.48L36 19.44V19.4L35.92 19.36L35.9 19.34L24.6 11.82C24.4257 11.7025 24.2202 11.6398 24.01 11.6398C23.7998 11.6398 23.5943 11.7025 23.42 11.82L12.1 19.34V19.36L12 19.4V19.44L11.94 19.48L11.88 19.54L11.86 19.6L11.8 19.66L11.78 19.7L11.74 19.78L11.72 19.82L11.68 19.9V20H11.66L11.64 20.1V27.9L11.66 28H11.68V28.1C11.7 28.12 11.7 28.14 11.72 28.18L11.74 28.22L11.78 28.3L11.8 28.34L11.84 28.4L11.88 28.46L11.94 28.52L12 28.56V28.6L12.08 28.64L12.1 28.66L23.42 36.2C23.58 36.32 23.8 36.36 24 36.36C24.2 36.36 24.42 36.3 24.6 36.2L35.9 28.66L35.92 28.64L36 28.6V28.56L36.06 28.52L36.12 28.46L36.16 28.4L36.2 28.34L36.22 28.3L36.26 28.22L36.28 28.18L36.32 28.1V28H36.34L36.36 27.9V20.24ZM34.24 25.78V22.22L31.58 24L34.24 25.78Z" fill="white"/>
</svg>
